<?xml version="1.0" encoding="UTF-8" standalone="no"?>
<svg
   xmlns:dc="http://purl.org/dc/elements/1.1/"
   xmlns:cc="http://creativecommons.org/ns#"
   xmlns:rdf="http://www.w3.org/1999/02/22-rdf-syntax-ns#"
   xmlns:svg="http://www.w3.org/2000/svg"
   xmlns="http://www.w3.org/2000/svg"
   id="svg6"
   height="22"
   width="130"
   version="1">
  <metadata
     id="metadata12">
    <rdf:RDF>
      <cc:Work
         rdf:about="">
        <dc:format>image/svg+xml</dc:format>
        <dc:type
           rdf:resource="http://purl.org/dc/dcmitype/StillImage" />
        <dc:title></dc:title>
      </cc:Work>
    </rdf:RDF>
  </metadata>
  <defs
     id="defs10" />
  <g
     style="fill:#66cc00;fill-opacity:1"
     id="g4"
     fill="#fff"
     transform="matrix(0.73377773,0,0,0.73377773,0.01850382,1.1618677)">
    <path
       style="fill:#66cc00;fill-opacity:1"
       id="path2"
       fill="#fff"
       d="m16.57 27.87c-0.87-0.37-0.93-0.43-1.06-0.92-0.09-0.33-0.13-1.3-0.1-2.55 0.06-2.48 0.06-2.48-1.26-1.89-1.37 0.61-2.25 0.8-4.05 0.88-1.91 0.08-3.28-0.07-4.82-0.56-3.78-1.19-5.19-3.05-5.21-6.84-0.02-2.74 0.61-4.26 3.11-7.57 0.61-0.8 1.53-1.86 2.05-2.35 1.84-1.74 5.21-4.59 5.98-5.05 1.47-0.9 2.87-0.95 4.46-0.19 1.08 0.52 1.52 1.03 2.03 2.37 0.38 0.99 0.48 2.98 0.19 3.55-0.3 0.58-0.75 0.84-1.3 0.75-0.73-0.12-0.99-0.38-1.57-1.55-0.66-1.35-0.87-1.48-1.86-1.16-1.17 0.37-2.54 1.39-4.52 3.38-2.98 2.99-4.44 4.98-5.21 7.1-0.44 1.21-0.44 1.58 0 2.2 0.41 0.58 1.03 0.88 2.56 1.22 0.79 0.18 1.59 0.4 1.78 0.5 0.49 0.25 3.38 0.24 4.66-0.02 1.31-0.27 2.6-0.87 3.15-1.48 0.44-0.49 0.51-0.68 0.36-1.05-0.11-0.28-0.32-0.26-3.1 0.31-1.36 0.28-2.95 0.55-3.53 0.59-1.2 0.09-1.33 0.03-1.91-0.96-0.29-0.49-0.33-0.7-0.32-1.6 0.02-1.48 0.29-1.99 1.27-2.35 1.23-0.46 3.02-0.86 6.28-1.4 1.71-0.29 3.38-0.58 3.69-0.65 0.31-0.07 0.85-0.09 1.19-0.04 1.11 0.15 2 1.25 2.45 3.01 0.27 1.04 0.18 1.68-0.47 3.36-0.29 0.76-0.64 1.78-0.77 2.26-0.4 1.49-0.74 4.23-0.74 5.92 0 1.94-0.15 2.33-1.03 2.77-0.93 0.46-1.33 0.46-2.37 0.02zm93.68-3.63c-1.42-0.25-2.94-1.01-3.86-1.94-1.33-1.33-1.85-2.75-1.84-4.98 0.01-2.48 0.65-4.38 2.96-8.81 0.78-1.49 1.52-3.1 1.65-3.57 0.33-1.16 0.67-1.67 1.31-1.98 0.29-0.14 1.53-0.49 2.75-0.77 1.22-0.28 3.56-0.86 5.21-1.28 1.65-0.42 3.15-0.76 3.35-0.76 0.2 0 0.58 0.09 0.85 0.2 0.46 0.19 0.53 0.29 1.09 1.59 0.48 1.14 0.6 1.55 0.62 2.27 0.06 1.72-0.04 1.76-7.3 3.05-0.81 0.14-2.2 0.5-3.09 0.78l-1.62 0.52-0.42 0.66c-0.23 0.36-0.49 0.86-0.57 1.11-0.13 0.38-0.12 0.47 0.07 0.6 0.29 0.21 1.29 0.2 2.85-0.03 1.96-0.29 2.39-0.41 3.47-0.97 0.85-0.43 1.05-0.49 1.27-0.37 0.65 0.35 1.33 1.86 1.43 3.18 0.05 0.7 0.02 0.92-0.23 1.4-0.41 0.79-1.07 1.1-2.71 1.27-0.7 0.07-2.3 0.3-3.56 0.51-1.26 0.21-2.8 0.43-3.41 0.49-1.25 0.13-1.78 0.4-1.84 0.94-0.06 0.47 0.93 1.3 1.77 1.5 0.84 0.2 1.37 0.1 3.13-0.58 0.81-0.32 1.73-0.64 2.04-0.73l0.57-0.15 0.42 0.49c0.92 1.07 1.16 2.98 0.52 4.24-0.18 0.36-0.52 0.8-0.75 0.98-0.44 0.34-2.02 1.04-2.76 1.23-0.64 0.16-2.19 0.13-3.37-0.08zm-27.42-0.26c-0.54-0.45-0.98-1.36-1.29-2.68-0.38-1.58-0.67-2.3-1.3-3.13-0.3-0.4-0.92-1.41-1.37-2.23-0.94-1.72-1.31-2.17-1.59-1.93-0.38 0.32-1.12 3.26-1.46 5.85-0.21 1.56-0.48 2.48-0.85 2.82-0.61 0.57-2.17 0.27-2.92-0.55-0.95-1.04-0.99-2.45-0.19-6.15 0.76-3.52 0.89-4.39 1.06-7 0.12-1.9 0.12-2.44-0.01-2.84-0.11-0.34-0.15-1.01-0.11-2.15 0.05-1.58 0.07-1.68 0.42-2.19 0.77-1.11 1.47-1.33 3.05-0.96 0.87 0.21 1.36 0.65 1.59 1.43 0.08 0.27 0.2 1.34 0.27 2.39 0.17 2.32 0.33 2.82 1.45 4.27 0.46 0.59 1.07 1.43 1.35 1.85 0.62 0.91 1.24 1.59 1.45 1.59 0.2 0 0.3-0.87 0.43-3.88 0.13-3.02 0.46-6.6 0.65-6.94 0.18-0.34 0.54-0.5 1.11-0.5 0.86 0 2.06 1.02 2.26 1.92l0.08 0.37 0.72-0.57c1.32-1.04 4.13-1.85 4.95-1.44 0.36 0.18 0.41 0.17 1.06-0.25 0.65-0.42 0.72-0.43 1.51-0.36 0.45 0.05 1.86 0.08 3.12 0.07 3.96-0.02 5.84 0.39 6.82 1.5 1.08 1.22 2.02 3.89 1.83 5.24-0.12 0.9-0.76 2.05-1.67 3.04-1.44 1.56-2.67 2.24-6.29 3.48-1.17 0.4-1.21 0.43-1.37 0.91-0.37 1.13-0.66 3.58-0.66 5.49 0 2.27-0.17 3.04-0.79 3.56-0.36 0.3-0.48 0.33-1.06 0.27-1.01-0.1-1.59-0.47-2.03-1.26-0.36-0.64-0.38-0.75-0.37-2.14 0-0.8 0.06-2.23 0.12-3.16l0.11-1.7-1.09-1.1c-0.92-0.92-1.12-1.2-1.25-1.72-0.17-0.68-0.01-1.97 0.33-2.62 0.29-0.55 1-1.1 1.55-1.19 0.81-0.13 0.92-0.35 1.01-1.97 0.07-1.27 0.06-1.42-0.14-1.5-0.39-0.15-1.81 0.17-2.87 0.65-1.47 0.66-1.75 0.69-2.59 0.21-0.38-0.22-0.73-0.4-0.77-0.4-0.04 0-0.15 0.15-0.25 0.33-0.15 0.28-0.15 0.45 0.01 1.11 0.23 0.98 0.14 5.55-0.15 8.07-0.18 1.52-0.18 1.77-0.01 2.44 0.38 1.47 0.18 3.89-0.42 5.01-0.43 0.81-0.79 0.98-2.04 0.98-0.91 0-1.06-0.03-1.41-0.33zM99.19 8.66c1-0.34 2.39-1.18 2.72-1.64 0.47-0.66 0.28-1.09-0.63-1.4-0.51-0.17-3.51-0.43-3.83-0.33-0.4 0.13-0.4 0.37 0.03 2.57 0.14 0.72 0.38 1.05 0.74 1.05 0.12 0 0.56-0.12 0.98-0.26zM25.12 24.01c-0.22-0.09-0.57-0.39-0.79-0.66-0.84-1.02-1.07-2.54-0.74-4.88 0.3-2.17 0.28-2.44-0.23-3.12-0.69-0.91-0.83-2.46-0.31-3.41 0.28-0.51 0.44-0.61 1.29-0.79 0.45-0.1 0.76-0.76 1.1-2.33 0.37-1.71 0.37-1.99-0.05-2.41-0.6-0.6-0.77-1.05-0.77-2.01 0-0.68 0.08-1.06 0.33-1.59 0.83-1.8 1.97-2.35 4.88-2.35 1.46 0 1.57 0.02 2.39 0.41 2.63 1.25 4.7 5.42 4.2 8.45-0.2 1.22-1 3.09-1.85 4.34l-0.76 1.12 0.25 0.34c0.14 0.19 1.03 0.86 1.99 1.5 0.96 0.63 1.86 1.26 2.01 1.4 0.47 0.43 0.79 1.21 0.8 1.97 0.01 0.67-0.03 0.77-0.74 1.75-1.04 1.44-1.05 1.45-2.08 1.46-1.09 0.01-1.25-0.09-2.5-1.54-0.53-0.61-1.4-1.49-1.95-1.96-1.23-1.05-3.13-2.39-3.4-2.39-0.11 0-0.3 0.19-0.42 0.41-0.26 0.48-0.28 1.32-0.12 3.73 0.1 1.48 0.09 1.71-0.11 2.1-0.12 0.24-0.29 0.48-0.37 0.53-0.24 0.16-1.64 0.1-2.06-0.08zM31.09 9.8c1.15-1.01 1.57-2.62 0.94-3.56-0.37-0.56-1.03-0.89-1.68-0.85l-0.51 0.03-0.09 1.4c-0.05 0.77-0.17 1.93-0.27 2.58-0.1 0.65-0.15 1.2-0.12 1.23 0.14 0.14 1.22-0.38 1.73-0.83zM45.63 23.92c-0.61-0.13-2.68-0.96-3.89-1.57-0.95-0.48-1.62-1.51-2.18-3.36-0.53-1.75-0.21-4.34 0.89-7.2 0.27-0.71 0.48-1.06 0.68-1.15 0.23-0.1 0.29-0.23 0.29-0.63 0-0.44-0.04-0.51-0.36-0.6-0.86-0.23-1.36-1.26-1.37-2.8 0-1.66 0.55-2.49 1.85-2.79 0.33-0.07 0.81-0.24 1.07-0.38 1.32-0.67 9.6-2.54 10.51-2.37 0.79 0.15 1.26 0.7 1.9 2.21 0.71 1.7 0.78 1.98 0.6 2.42-0.19 0.46-0.71 0.76-1.62 0.92-0.41 0.07-1 0.21-1.31 0.31-0.31 0.1-1.1 0.27-1.75 0.38-2.77 0.47-5.02 1.25-5.42 1.87-0.11 0.16-0.23 0.51-0.28 0.76-0.16 0.86 0.46 0.88 3.31 0.11 1.55-0.42 2.67-0.49 3.25-0.19 1.07 0.56 2.14 4.04 1.42 4.67-0.4 0.35-1.59 0.61-3.4 0.74-1.91 0.13-2.41 0.21-4.56 0.72-1.18 0.28-1.4 0.37-1.52 0.63-0.23 0.51 0.01 0.96 0.61 1.14 0.28 0.08 0.71 0.27 0.95 0.42 0.61 0.37 1.31 0.34 2.54-0.11 0.57-0.21 1.12-0.38 1.21-0.38 0.35 0 1.08 0.8 1.48 1.61 0.9 1.83 0.31 3.71-1.39 4.45-0.57 0.25-2.62 0.34-3.51 0.16zm15.12-0.07c-1.51-0.33-2.55-0.64-3.21-0.94-0.69-0.31-0.86-0.46-1.31-1.16-0.72-1.1-1.48-2.74-1.72-3.67-0.22-0.87-0.22-0.93 0.35-3.81 0.48-2.45 0.73-3.26 1.54-5.03 0.58-1.26 0.66-1.55 0.81-2.91 0.2-1.85 0.33-2.26 0.78-2.52 0.79-0.45 2.84-1.12 3.98-1.3 0.66-0.11 2.07-0.4 3.12-0.66 2.14-0.52 4.06-0.7 4.81-0.45 0.25 0.08 0.6 0.31 0.76 0.51 0.55 0.65 1.36 2.26 1.36 2.7 0 0.64-0.24 1.36-0.49 1.49-0.13 0.07-1.54 0.27-3.13 0.46-2.98 0.34-4.19 0.59-5.49 1.1-0.67 0.26-0.78 0.36-1.06 0.94-0.17 0.36-0.42 0.81-0.55 1-0.19 0.29-0.2 0.38-0.06 0.47 0.57 0.36 3.7-0.23 4.9-0.92 0.62-0.35 0.72-0.37 1.13-0.24 0.97 0.32 1.65 1.25 2.05 2.82 0.22 0.84 0.18 1.64-0.1 1.97-0.42 0.51-2.84 1.32-4.5 1.5-0.42 0.05-0.94 0.16-1.15 0.26-0.21 0.1-1.3 0.3-2.42 0.46-1.72 0.24-2.08 0.33-2.32 0.57-0.38 0.38-0.36 0.6 0.05 0.93 0.5 0.39 1.5 0.65 2.54 0.65 1.29 0 2.11-0.2 2.86-0.71 0.35-0.24 0.75-0.43 0.87-0.43 0.32 0 0.99 0.81 1.38 1.65 0.39 0.84 0.52 2.38 0.28 3.14-0.37 1.16-1.06 1.66-2.72 2.01-0.92 0.19-2.72 0.25-3.33 0.12zm72.66-0.01c-0.5-0.12-1.12-0.72-1.41-1.37-0.32-0.7-0.55-2.34-0.56-3.95 0-0.49-0.06-0.98-0.12-1.08-0.27-0.43-3.16-0.25-5.06 0.32-0.8 0.24-1 0.51-2 2.74-0.75 1.66-1.29 2.51-1.82 2.82-0.34 0.2-0.38 0.19-1.36-0.32-0.96-0.5-1.03-0.56-1.24-1.17-0.16-0.45-0.21-0.94-0.19-1.67 0.03-1 0.05-1.06 0.63-1.91 0.75-1.1 1.18-2.05 1.94-4.35 0.47-1.41 0.67-1.86 0.92-2.02 0.49-0.32 0.94-1.05 2.6-4.25 2.12-4.07 3.01-5.35 4.49-6.44 0.65-0.48 0.83-0.55 1.4-0.55 0.63 0 0.67 0.02 1.42 0.81 1.4 1.47 2.29 3.72 2.68 6.81 0.11 0.89 0.24 1.78 0.29 1.98l0.09 0.37 0.41-0.34c0.22-0.19 0.7-0.85 1.06-1.48 0.98-1.71 2.8-3.26 5.32-4.51 2.25-1.12 4.15-1.59 6.4-1.59 1.63 0 1.99 0.12 2.74 0.91 0.99 1.04 1.44 2.35 1.46 4.26 0.01 1.39-0.2 2.14-0.88 3.02-0.73 0.96-1.07 1.16-1.94 1.15-1.05-0.01-2.39-0.69-2.62-1.33-0.22-0.62-0.21-1.86 0.02-2.52 0.14-0.41 0.16-0.61 0.05-0.81-0.12-0.23-0.23-0.26-1-0.21-1.1 0.06-2.4 0.68-3.6 1.72-1.59 1.37-2.53 2.8-2.8 4.25-0.18 0.94 0.03 1.32 1.24 2.24 1.58 1.21 3.85 2.14 5.56 2.29 1.06 0.09 1.79-0.13 3.32-1.01 1.22-0.7 1.12-0.71 1.95 0.06 0.35 0.32 0.41 0.34 0.56 0.16 0.09-0.11 0.2-0.74 0.25-1.44 0.11-1.49 0.6-3.16 1.67-5.71 0.66-1.58 0.75-1.9 0.75-2.64 0-1.09 0.38-2.12 1.02-2.76 0.73-0.73 1.63-1 4.18-1.28 1.22-0.13 2.99-0.39 3.94-0.57 0.95-0.18 2.36-0.37 3.13-0.43 0.77-0.06 1.6-0.2 1.85-0.31 0.54-0.23 2.73-0.79 3.56-0.91 1.89-0.27 3.4 1.41 3.53 3.9 0.06 1.15-0.1 1.94-0.42 2.07-0.1 0.04-0.6-0.05-1.11-0.19-0.89-0.25-0.96-0.25-1.88-0.05-0.61 0.13-2.06 0.26-3.99 0.33-1.67 0.07-3.39 0.17-3.82 0.24-2.57 0.39-4.44 0.78-4.9 1.02-0.69 0.35-1.03 0.91-1.03 1.7l0 0.62 2.7-0.06c1.96-0.04 2.87-0.11 3.3-0.25 0.55-0.18 0.62-0.18 0.96 0.03 0.5 0.31 1.12 1.07 1.53 1.91 0.28 0.57 0.34 0.86 0.33 1.59-0.02 1.74-0.41 2.41-1.62 2.81-1.21 0.39-1.2 0.37-0.54 1.07 0.49 0.53 0.58 0.7 0.59 1.17 0.03 1.54-0.1 2.19-0.6 2.86-0.37 0.5-1.2 0.82-2.85 1.11-0.66 0.12-1.49 0.3-1.83 0.41-1.17 0.38-3.74-0.05-5.5-0.91-0.85-0.42-1.18-0.71-2.37-2.1-0.19-0.22-0.4-0.37-0.47-0.33-0.07 0.04-0.39 0.57-0.72 1.16-1.16 2.13-1.91 2.77-3.43 2.93-1.36 0.14-3.81-0.48-6.16-1.56-2.1-0.97-4.9-3.17-5.91-4.66-0.7-1.03-1.17-1.54-1.33-1.44-0.31 0.19-0.41 1.15-0.38 3.48 0.03 2.29 0.02 2.42-0.27 3.06-0.47 1.05-1.04 1.34-2.11 1.08zm28.13-5.95c0.34-0.1 0.99-0.19 1.43-0.19 0.66 0 0.95-0.07 1.56-0.4 0.48-0.26 0.71-0.45 0.63-0.52-0.07-0.07-1.59-0.15-3.42-0.19-3.25-0.07-3.3-0.06-3.57 0.21-0.41 0.41-0.34 0.61 0.29 0.85 1.24 0.47 2.11 0.54 3.07 0.25zm-30.31-6.85c0.36-0.23 0.46-0.74 0.46-2.33 0-0.98-0.04-1.21-0.26-1.5-0.15-0.18-0.36-0.34-0.48-0.33-0.29 0-1.92 3.17-2.02 3.93l-0.07 0.56 1.04-0.07c0.61-0.04 1.17-0.15 1.34-0.27z" />
  </g>
</svg>
